<svg width="960" height="800" xmlns="http://www.w3.org/2000/svg" xmlns:xlink="http://www.w3.org/1999/xlink" overflow="hidden"><g><rect x="0" y="0" width="960" height="800" fill="#0B2A3A"/><path d="M28 126C28 118.268 34.2681 112 42.0002 112L222 112C229.732 112 236 118.268 236 126L236 182C236 189.732 229.732 196 222 196L42.0002 196C34.2681 196 28 189.732 28 182Z" fill="#123B52" fill-rule="evenodd"/><path d="M492 126C492 118.268 498.268 112 506 112L686 112C693.732 112 700 118.268 700 126L700 182C700 189.732 693.732 196 686 196L506 196C498.268 196 492 189.732 492 182Z" fill="#123B52" fill-rule="evenodd"/><path d="M260 126C260 118.268 266.268 112 274 112L454 112C461.732 112 468 118.268 468 126L468 182C468 189.732 461.732 196 454 196L274 196C266.268 196 260 189.732 260 182Z" fill="#123B52" fill-rule="evenodd"/><path d="M724 126C724 118.268 730.268 112 738 112L918 112C925.732 112 932 118.268 932 126L932 182C932 189.732 925.732 196 918 196L738 196C730.268 196 724 189.732 724 182Z" fill="#123B52" fill-rule="evenodd"/><path d="M656 490.001C656 464.595 676.595 444 702.001 444L885.999 444C911.405 444 932 464.595 932 490.001L932 733.999C932 759.405 911.405 780 885.999 780L702.001 780C676.595 780 656 759.405 656 733.999Z" fill="#123B52" fill-rule="evenodd"/><path d="M384 485.334C384 462.506 402.506 444 425.334 444L590.666 444C613.494 444 632 462.506 632 485.334L632 738.666C632 761.494 613.494 780 590.666 780L425.334 780C402.506 780 384 761.494 384 738.666Z" fill="#123B52" fill-rule="evenodd"/><path d="M28 251.334C28 231.819 43.8194 216 63.3335 216L896.666 216C916.181 216 932 231.819 932 251.334L932 392.666C932 412.181 916.181 428 896.666 428L63.3335 428C43.8194 428 28 412.181 28 392.666Z" fill="#123B52" fill-rule="evenodd"/><path d="M28 498.668C28 468.476 52.4755 444 82.6676 444L301.332 444C331.524 444 356 468.476 356 498.668L356 725.332C356 755.524 331.524 780 301.332 780L82.6676 780C52.4755 780 28 755.524 28 725.332Z" fill="#123B52" fill-rule="evenodd"/><path d="M492 41.3337C492 36.1788 496.179 32 501.334 32L922.666 32C927.821 32 932 36.1788 932 41.3337L932 78.6663C932 83.8212 927.821 88 922.666 88L501.334 88C496.179 88 492 83.8212 492 78.6663Z" fill="#123B52" fill-rule="evenodd"/></g></svg>