<svg width="1024" height="656" xmlns="http://www.w3.org/2000/svg" xmlns:xlink="http://www.w3.org/1999/xlink" overflow="hidden"><defs><filter id="fx0" x="-10%" y="-10%" width="120%" height="120%" filterUnits="userSpaceOnUse" primitiveUnits="userSpaceOnUse"><feComponentTransfer color-interpolation-filters="sRGB"><feFuncR type="discrete" tableValues="0 0"/><feFuncG type="discrete" tableValues="0 0"/><feFuncB type="discrete" tableValues="0 0"/><feFuncA type="linear" slope="0.4" intercept="0"/></feComponentTransfer><feGaussianBlur stdDeviation="1.77778 1.77778"/></filter><filter id="fx1" x="-10%" y="-10%" width="120%" height="120%" filterUnits="userSpaceOnUse" primitiveUnits="userSpaceOnUse"><feComponentTransfer color-interpolation-filters="sRGB"><feFuncR type="discrete" tableValues="0 0"/><feFuncG type="discrete" tableValues="0 0"/><feFuncB type="discrete" tableValues="0 0"/><feFuncA type="linear" slope="0.4" intercept="0"/></feComponentTransfer><feGaussianBlur stdDeviation="1.77778 1.77778"/></filter><filter id="fx2" x="-10%" y="-10%" width="120%" height="120%" filterUnits="userSpaceOnUse" primitiveUnits="userSpaceOnUse"><feComponentTransfer color-interpolation-filters="sRGB"><feFuncR type="discrete" tableValues="0 0"/><feFuncG type="discrete" tableValues="0 0"/><feFuncB type="discrete" tableValues="0 0"/><feFuncA type="linear" slope="0.4" intercept="0"/></feComponentTransfer><feGaussianBlur stdDeviation="1.77778 1.77778"/></filter><filter id="fx3" x="-10%" y="-10%" width="120%" height="120%" filterUnits="userSpaceOnUse" primitiveUnits="userSpaceOnUse"><feComponentTransfer color-interpolation-filters="sRGB"><feFuncR type="discrete" tableValues="0 0"/><feFuncG type="discrete" tableValues="0 0"/><feFuncB type="discrete" tableValues="0 0"/><feFuncA type="linear" slope="0.4" intercept="0"/></feComponentTransfer><feGaussianBlur stdDeviation="1.77778 1.77778"/></filter><filter id="fx4" x="-10%" y="-10%" width="120%" height="120%" filterUnits="userSpaceOnUse" primitiveUnits="userSpaceOnUse"><feComponentTransfer color-interpolation-filters="sRGB"><feFuncR type="discrete" tableValues="0 0"/><feFuncG type="discrete" tableValues="0 0"/><feFuncB type="discrete" tableValues="0 0"/><feFuncA type="linear" slope="0.4" intercept="0"/></feComponentTransfer><feGaussianBlur stdDeviation="1.77778 1.77778"/></filter><filter id="fx5" x="-10%" y="-10%" width="120%" height="120%" filterUnits="userSpaceOnUse" primitiveUnits="userSpaceOnUse"><feComponentTransfer color-interpolation-filters="sRGB"><feFuncR type="discrete" tableValues="0 0"/><feFuncG type="discrete" tableValues="0 0"/><feFuncB type="discrete" tableValues="0 0"/><feFuncA type="linear" slope="0.4" intercept="0"/></feComponentTransfer><feGaussianBlur stdDeviation="1.77778 1.77778"/></filter><clipPath id="clip6"><rect x="0" y="0" width="1024" height="656"/></clipPath></defs><g clip-path="url(#clip6)"><rect x="0" y="0" width="1024" height="656" fill="#FFFFFF"/><rect x="0.500053" y="0.500053" width="1024" height="656" stroke="#273C18" stroke-width="1.33333" stroke-miterlimit="8" fill="#192A22"/><g filter="url(#fx0)" transform="translate(48 67)"><g><path d="M6.82843 21.1839C6.82843 13.2556 13.2555 6.82843 21.1838 6.82843L912.473 6.82843C920.401 6.82843 926.828 13.2556 926.828 21.1839L926.828 76.4729C926.828 84.4013 920.401 90.8284 912.473 90.8284L21.1838 90.8284C13.2555 90.8284 6.82843 84.4013 6.82843 76.4729Z" fill="#213A2D" fill-rule="evenodd"/></g></g><path d="M52 85.3555C52 77.4272 58.4271 71 66.3554 71L957.645 71C965.573 71 972 77.4272 972 85.3555L972 140.645C972 148.573 965.573 155 957.645 155L66.3554 155C58.4271 155 52 148.573 52 140.645Z" fill="#213A2D" fill-rule="evenodd"/><g filter="url(#fx1)" transform="translate(48 172)"><g><path d="M6.82843 16.3499C6.82843 11.0913 11.0913 6.82843 16.3499 6.82843L445.307 6.82843C450.565 6.82843 454.828 11.0913 454.828 16.3499L454.828 225.307C454.828 230.565 450.565 234.828 445.307 234.828L16.3499 234.828C11.0913 234.828 6.82843 230.565 6.82843 225.307Z" fill="#213A2D" fill-rule="evenodd"/></g></g><path d="M52 185.521C52 180.263 56.2629 176 61.5215 176L490.478 176C495.737 176 500 180.263 500 185.521L500 394.479C500 399.737 495.737 404 490.478 404L61.5215 404C56.2629 404 52 399.737 52 394.479Z" fill="#213A2D" fill-rule="evenodd"/><g filter="url(#fx2)" transform="translate(48 421)"><g><path d="M6.82843 23.1096C6.82843 14.1178 14.1177 6.82843 23.1096 6.82843L438.547 6.82843C447.539 6.82843 454.828 14.1178 454.828 23.1096L454.828 192.547C454.828 201.539 447.539 208.828 438.547 208.828L23.1096 208.828C14.1177 208.828 6.82843 201.539 6.82843 192.547Z" fill="#213A2D" fill-rule="evenodd"/></g></g><path d="M52 441.281C52 432.289 59.2893 425 68.2812 425L483.719 425C492.711 425 500 432.289 500 441.281L500 610.719C500 619.711 492.711 627 483.719 627L68.2812 627C59.2893 627 52 619.711 52 610.719Z" fill="#213A2D" fill-rule="evenodd"/><g filter="url(#fx3)" transform="translate(520 172)"><g><path d="M6.82843 16.3499C6.82843 11.0913 11.0913 6.82843 16.3499 6.82843L445.307 6.82843C450.565 6.82843 454.828 11.0913 454.828 16.3499L454.828 225.307C454.828 230.565 450.565 234.828 445.307 234.828L16.3499 234.828C11.0913 234.828 6.82843 230.565 6.82843 225.307Z" fill="#213A2D" fill-rule="evenodd"/></g></g><path d="M524 185.521C524 180.263 528.263 176 533.521 176L962.479 176C967.737 176 972 180.263 972 185.521L972 394.479C972 399.737 967.737 404 962.479 404L533.521 404C528.263 404 524 399.737 524 394.479Z" fill="#213A2D" fill-rule="evenodd"/><g filter="url(#fx4)" transform="translate(520 421)"><g><path d="M6.82843 23.1096C6.82843 14.1178 14.1178 6.82843 23.1096 6.82843L438.547 6.82843C447.539 6.82843 454.828 14.1178 454.828 23.1096L454.828 192.547C454.828 201.539 447.539 208.828 438.547 208.828L23.1096 208.828C14.1178 208.828 6.82843 201.539 6.82843 192.547Z" fill="#213A2D" fill-rule="evenodd"/></g></g><path d="M524 441.281C524 432.289 531.289 425 540.281 425L955.719 425C964.711 425 972 432.289 972 441.281L972 610.719C972 619.711 964.711 627 955.719 627L540.281 627C531.289 627 524 619.711 524 610.719Z" fill="#213A2D" fill-rule="evenodd"/><g filter="url(#fx5)" transform="translate(703 16)"><g><path d="M6.82843 12.9808C6.82843 9.58292 9.58292 6.82843 12.9808 6.82843L265.676 6.82843C269.074 6.82843 271.828 9.58292 271.828 12.9808L271.828 36.6761C271.828 40.0739 269.074 42.8284 265.676 42.8284L12.9808 42.8284C9.58292 42.8284 6.82843 40.0739 6.82843 36.6761Z" fill="#213A2D" fill-rule="evenodd"/></g></g><path d="M707 26.1523C707 22.7545 709.755 20 713.152 20L965.848 20C969.245 20 972 22.7545 972 26.1523L972 49.8477C972 53.2455 969.245 56 965.848 56L713.152 56C709.755 56 707 53.2455 707 49.8477Z" fill="#213A2D" fill-rule="evenodd"/></g></svg>